Jump_normalized_Motion_pl08
version=1
nRows=10
nColumns=43
inDegrees=yes
endheader
time		pelvis_tilt		pelvis_list		pelvis_rotation		pelvis_tx		pelvis_ty		pelvis_tz		hip_flexion_r		hip_adduction_r		hip_rotation_r		knee_angle_r		ankle_angle_r		subtalar_angle_r		mtp_angle_r		hip_flexion_l		hip_adduction_l		hip_rotation_l		knee_angle_l		ankle_angle_l		subtalar_angle_l		mtp_angle_l		lumbar_extension		lumbar_bending		lumbar_rotation		neck_flexion		neck_lateral_bending		neck_rotation		arm_flex_r		arm_add_r		arm_rot_r		elbow_flex_r		pro_sup_r		wrist_flex_r		wrist_dev_r		hand_finger_flex_r		arm_flex_l		arm_add_l		arm_rot_l		elbow_flex_l		pro_sup_l		wrist_flex_l		wrist_dev_l		hand_finger_flex_l		
1.298333		-0.780275		-22.355719		93.840751		0.002453		1.830431		1.654993		56.060653		-6.817595		5.274102		-119.319520		18.399370		-5.313479		-3.627634		57.625465		-3.023953		7.422830		-119.444392		22.828164		-15.157033		2.463448		-39.192007		0.661870		-0.299094		26.760575		1.251594		-3.164867		126.541137		-10.241163		32.489231		60.840702		68.071190		-32.217701		0.193361		43.066888		127.548169		-4.536244		22.466195		67.904936		107.748024		-24.585860		18.725963		87.691305		
1.301111		-0.841451		-22.169372		93.768019		0.002244		1.832050		1.649150		55.372640		-6.881242		5.314624		-118.946294		17.615239		-5.165647		-3.710815		56.903304		-3.080510		7.388075		-119.167381		22.152422		-14.847472		2.675876		-39.089141		0.586686		-0.251853		26.189349		1.278624		-3.162523		126.649383		-10.118207		32.330463		60.789345		68.070765		-32.025788		0.032857		43.182256		127.672005		-4.417970		22.429365		67.855230		107.552465		-24.683603		18.633097		87.704388		
1.303889		-0.895748		-21.984755		93.713772		0.002005		1.833604		1.643267		54.706820		-6.959698		5.350951		-118.585672		16.815393		-5.004539		-3.794407		56.193517		-3.144890		7.352600		-118.877308		21.453093		-14.538144		2.868208		-38.976068		0.524095		-0.208342		25.605637		1.294528		-3.164263		126.750041		-10.010158		32.184003		60.742903		68.062311		-31.870704		-0.103130		43.298563		127.764301		-4.299515		22.410360		67.818313		107.386978		-24.761727		18.535575		87.724387		
1.306667		-1.032832		-21.351191		93.586132		0.001868		1.836112		1.636878		53.490034		-7.035696		5.397757		-118.137581		15.974798		-5.070259		-3.761167		54.903171		-3.197804		7.242040		-118.481933		20.697831		-14.358904		3.907615		-39.406041		0.390542		-0.178662		25.159462		1.326278		-3.167603		126.934061		-9.863179		31.983235		60.563136		68.122939		-31.469835		-0.482775		43.713027		127.996122		-4.242516		22.511770		67.679414		106.998414		-25.001453		18.087065		87.833815		
1.309444		-1.099431		-21.070954		93.528520		0.001629		1.837786		1.630835		52.737802		-7.145424		5.419507		-117.769983		15.098763		-4.887104		-3.792178		54.114412		-3.262695		7.186159		-118.183629		19.880876		-14.076000		4.451420		-39.394195		0.326118		-0.123449		24.578752		1.336505		-3.176213		127.027669		-9.752509		31.845111		60.464595		68.136275		-31.325054		-0.652948		43.917429		128.084021		-4.149416		22.551803		67.604421		106.799385		-25.133427		17.876300		87.901609		
1.312222		-1.128345		-20.974800		93.474842		0.001373		1.839092		1.624919		52.229927		-7.234402		5.453040		-117.425488		14.114458		-4.568279		-3.888945		53.594374		-3.292892		7.214226		-117.956011		18.983639		-13.715384		4.564521		-39.144239		0.282694		-0.054689		23.852314		1.331538		-3.206763		127.023114		-9.666147		31.752766		60.457349		68.102485		-31.332676		-0.704383		43.981680		128.055802		-4.049299		22.506504		67.579972		106.765865		-25.190276		17.839714		87.929090		
1.315000		-1.234407		-20.381918		93.358313		0.001237		1.841396		1.618519		51.147485		-7.314254		5.486829		-117.003440		12.936561		-4.611387		-3.843933		52.438355		-3.355509		7.108750		-117.587428		18.007012		-13.610980		5.340446		-39.504672		0.171503		0.045753		23.368045		1.336898		-3.310624		127.127773		-9.499840		31.520429		60.272289		68.046350		-31.270536		-1.064486		44.298084		128.131732		-3.823283		22.346619		67.410855		106.832019		-25.473635		17.529440		88.000322		
1.317778		-1.249806		-20.276797		93.314812		0.001015		1.842608		1.612435		50.640808		-7.400539		5.503558		-116.669448		12.002363		-4.271640		-3.910060		51.936078		-3.415475		7.128843		-117.350358		17.043280		-13.247079		5.442139		-39.241152		0.134612		0.122913		22.558477		1.335656		-3.326032		127.105031		-9.536239		31.592685		60.337562		68.044038		-31.239406		-1.095185		44.387314		128.072638		-3.823868		22.498322		67.453804		106.872147		-25.485050		17.497918		88.041904		
1.320556		-1.279534		-19.946198		93.272079		0.000835		1.844235		1.606156		49.893683		-7.478181		5.504801		-116.315627		10.878760		-4.075620		-3.900842		51.175339		-3.506087		7.086777		-117.040848		15.975576		-13.031077		5.754318		-39.254349		0.091478		0.227195		21.889846		1.338106		-3.391192		127.123303		-9.509160		31.546330		60.283117		68.021919		-31.237730		-1.261616		44.540130		128.038828		-3.703363		22.532485		67.411255		107.015597		-25.639058		17.385573		88.066260		
1.323333		-1.338942		-19.238049		93.166334		0.000771		1.846668		1.599460		48.691589		-7.505498		5.504812		-115.837695		9.586880		-4.145866		-3.660381		49.946068		-3.580706		7.035266		-116.679442		14.735515		-13.098687		6.647149		-39.723791		0.010690		0.347890		21.309977		1.351840		-3.505397		127.216509		-9.478186		31.530263		60.188862		68.007565		-31.219284		-1.646847		44.897332		128.068750		-3.569746		22.531741		67.296321		107.378768		-26.019888		17.101927		88.116140		
